<svg xmlns="http://www.w3.org/2000/svg" xmlns:xlink="http://www.w3.org/1999/xlink" width="500" zoomAndPan="magnify" viewBox="0 0 375 374.999991" height="500" preserveAspectRatio="xMidYMid meet" version="1.0"><defs><g/><clipPath id="9e6a5888e2"><path d="M 45.648438 77.609375 L 206.773438 77.609375 L 206.773438 298.722656 L 45.648438 298.722656 Z M 45.648438 77.609375 " clip-rule="nonzero"/></clipPath><clipPath id="f200f68c52"><path d="M 150.417969 37.5 L 229.230469 37.5 L 229.230469 157.503906 L 150.417969 157.503906 Z M 150.417969 37.5 " clip-rule="nonzero"/></clipPath><clipPath id="2778588b6f"><path d="M 161.472656 90.898438 L 211.621094 90.898438 L 211.621094 141.042969 L 161.472656 141.042969 Z M 161.472656 90.898438 " clip-rule="nonzero"/></clipPath><clipPath id="5dc62acb6d"><path d="M 186.546875 90.898438 C 172.699219 90.898438 161.472656 102.121094 161.472656 115.96875 C 161.472656 129.816406 172.699219 141.042969 186.546875 141.042969 C 200.394531 141.042969 211.621094 129.816406 211.621094 115.96875 C 211.621094 102.121094 200.394531 90.898438 186.546875 90.898438 Z M 186.546875 90.898438 " clip-rule="nonzero"/></clipPath></defs><rect x="-37.5" width="450" fill="#ffffff" y="-37.499999" height="449.999989" fill-opacity="1"/><rect x="-37.5" width="450" fill="#ffffff" y="-37.499999" height="449.999989" fill-opacity="1"/><g fill="#ffc627" fill-opacity="1"><g transform="translate(132.356345, 287.696654)"><g><path d="M 23.734375 -215.8125 L 115.296875 -215.8125 C 137.703125 -215.8125 157.382812 -211.238281 174.34375 -202.09375 C 191.300781 -192.945312 204.609375 -180.304688 214.265625 -164.171875 C 223.921875 -148.035156 228.75 -129.28125 228.75 -107.90625 C 228.75 -86.738281 223.867188 -68.035156 214.109375 -51.796875 C 204.347656 -35.554688 190.832031 -22.863281 173.5625 -13.71875 C 156.300781 -4.570312 136.265625 0 113.453125 0 L 23.734375 0 Z M 72.453125 -174.796875 L 72.453125 -41 L 116.53125 -41 C 128.65625 -41 139.394531 -43.820312 148.75 -49.46875 C 158.101562 -55.125 165.503906 -62.9375 170.953125 -72.90625 C 176.398438 -82.875 179.125 -94.4375 179.125 -107.59375 C 179.125 -120.957031 176.296875 -132.671875 170.640625 -142.734375 C 164.992188 -152.804688 157.285156 -160.664062 147.515625 -166.3125 C 137.753906 -171.96875 126.707031 -174.796875 114.375 -174.796875 Z M 72.453125 -174.796875 "/></g></g></g><g clip-path="url(#9e6a5888e2)"><path fill="#ffffff" d="M 45.648438 77.609375 L 206.773438 77.609375 L 206.773438 298.527344 L 45.648438 298.527344 Z M 45.648438 77.609375 " fill-opacity="1" fill-rule="nonzero"/></g><g fill="#ffc627" fill-opacity="1"><g transform="translate(13.666666, 287.696691)"><g><path d="M 135.03125 0 L 84.78125 0 L 0 -215.8125 L 52.40625 -215.8125 L 111.296875 -53.03125 L 170.484375 -215.8125 L 220.734375 -215.8125 Z M 135.03125 0 "/></g></g></g><g clip-path="url(#f200f68c52)"><path fill="#ffffff" d="M 150.417969 37.5 L 229.230469 37.5 L 229.230469 157.5625 L 150.417969 157.5625 Z M 150.417969 37.5 " fill-opacity="1" fill-rule="nonzero"/></g><g clip-path="url(#2778588b6f)"><g clip-path="url(#5dc62acb6d)"><path fill="#8c1d40" d="M 161.472656 90.898438 L 211.621094 90.898438 L 211.621094 141.042969 L 161.472656 141.042969 Z M 161.472656 90.898438 " fill-opacity="1" fill-rule="nonzero"/></g></g></svg>